<svg width="141" height="119" viewBox="0 0 141 119" fill="none" xmlns="http://www.w3.org/2000/svg">
<g opacity="0.04" clip-path="url(#clip0)">
<path d="M137.127 61.7129C137.127 61.7129 94.4629 117.124 1.26491 53.7653C1.26491 53.7653 94.049 -4.31663 137.127 61.7129Z" fill="url(#paint0_linear)"/>
<path opacity="0.08" d="M92.1923 31.2992C93.1752 54.2218 70.0209 68.6171 46.5375 77.3231C108.296 98.9855 137.127 61.7128 137.127 61.7128C124.985 43.0634 109.007 34.2569 92.1923 31.2992Z" fill="#1F5148"/>
<path opacity="0.8" d="M68.7131 34.1506L89.5096 57.7095L48.3841 55.9249L36.7383 42.4643L46.2197 55.743L33.5657 55.3225L33.3994 54.9869L33.0663 55.1519L13.5858 54.3506L32.0669 55.6469L21.5719 62.9355L34.3976 56.1645L34.2313 55.8289L67.8635 58.3989L46.8742 72.1399L70.5273 58.7516L111.985 62.0438C111.652 62.2088 111.318 62.3738 110.985 62.5389C108.153 64.3596 103.989 66.8404 100.158 69.1562C92.1622 73.9527 84.3329 79.0849 84.3329 79.0849C84.3329 79.0849 92.4947 74.624 100.49 69.8275C104.488 67.8474 108.652 65.3666 111.65 63.8815C112.983 63.2215 113.982 62.7265 114.648 62.3964L136.959 63.886L137.295 59.5393L91.5077 57.5558L68.7131 34.1506Z" fill="#1F5148"/>
</g>
<defs>
<linearGradient id="paint0_linear" x1="-113.373" y1="-357.671" x2="510.555" y2="1064.65" gradientUnits="userSpaceOnUse">
<stop stop-color="#41CBB9"/>
<stop offset="1" stop-color="#3EB29D"/>
</linearGradient>
<clipPath id="clip0">
<rect width="119.333" height="72.6707" fill="white" transform="translate(140.122 65.2463) rotate(153.649)"/>
</clipPath>
</defs>
</svg>
