<svg width="97" height="157" viewBox="0 0 97 157" fill="none" xmlns="http://www.w3.org/2000/svg">
<g opacity="0.09" clip-path="url(#clip0)">
<path d="M5.88815 154.583C5.88815 154.583 -33.6219 72.1406 95.2403 0.73662C95.2403 0.73662 108.326 143.236 5.88815 154.583Z" fill="url(#paint0_linear)"/>
<path opacity="0.08" d="M67.8615 120.077C40.5348 107.713 37.385 72.2107 41.0677 39.6778C-20.61 98.9722 5.88824 154.583 5.88824 154.583C34.8058 151.408 54.4994 137.954 67.8615 120.077Z" fill="#1F5148"/>
<path opacity="0.8" d="M78.3731 90.9996L38.6256 101.38L64.9477 54.4447L87.5184 48.7895L66.4357 52.0263L74.3847 37.5087L74.8744 37.5126L74.8782 37.0266L87.2952 14.768L74.8897 35.5687L72.5707 19.0267L72.9119 37.9832L73.4016 37.987L50.5796 75.7159L46.9172 43.1255L48.598 78.6164L20.3211 125.051C20.3249 124.565 20.3287 124.079 20.3325 123.593C19.8771 119.215 19.4369 112.894 18.9929 107.058C18.1087 94.9014 16.7349 82.7408 16.7349 82.7408C16.7349 82.7408 17.1294 94.8938 18.0135 107.051C17.9679 112.882 18.4081 119.204 18.3738 123.577C18.3586 125.521 18.3471 126.979 18.3395 127.951L3.45131 153.106L8.32522 156.06L37.6272 103.802L78.3731 90.9996Z" fill="#1F5148"/>
</g>
<defs>
<linearGradient id="paint0_linear" x1="642.894" y1="109.476" x2="-1384.49" y2="-0.820673" gradientUnits="userSpaceOnUse">
<stop stop-color="#41CBB9"/>
<stop offset="1" stop-color="#3EB29D"/>
</linearGradient>
<clipPath id="clip0">
<rect width="156" height="95" fill="white" transform="translate(0 155.995) rotate(-89.5512)"/>
</clipPath>
</defs>
</svg>
