<svg width="100" height="100" viewBox="0 0 100 100" fill="none" xmlns="http://www.w3.org/2000/svg">
<path d="M98.4374 96.8749H85.8891C95.3077 88.9377 89.7586 73.4374 77.3437 73.4374H76.236C77.0054 70.7169 76.448 69.6286 74.3434 60.1509C72.4057 51.4411 65.8806 44.222 56.9657 41.624C59.0926 40.1911 60.7549 38.1214 61.6817 35.6911C62.0063 35.4837 61.9217 35.5406 63.9166 32.842C70.8514 23.4613 66.0949 10.9975 56.25 7.34511V6.25C56.25 2.80371 53.4463 0 50 0C46.5537 0 43.75 2.80371 43.75 6.25V7.34511C33.9026 10.9984 29.1509 23.4645 36.0834 32.842C38.086 35.5509 37.9934 35.4837 38.3183 35.6911C39.2449 38.12 40.9054 40.1889 43.0306 41.6214C39.7086 42.5897 36.5971 44.2446 33.9197 46.5051C33.2603 47.062 33.1771 48.0477 33.734 48.7071C34.2906 49.3666 35.2766 49.4497 35.9357 48.8929C41.6991 44.0266 49.6731 42.4117 57.04 44.9257C54.7771 53.4314 47.8674 59.8186 39.0994 61.3654L37.9174 61.574L39.0251 56.5889C39.2123 55.7466 38.6811 54.912 37.8389 54.7246C36.9966 54.5374 36.162 55.0686 35.9746 55.9109C35.6269 57.4751 33.5811 66.6817 33.1214 68.7497H31.25C30.3871 68.7497 29.6874 69.4494 29.6874 70.3123C29.6874 71.1751 30.3871 71.8749 31.25 71.8749H37.1209C41.8131 71.8749 46.2243 70.0477 49.5423 66.7297C49.8474 66.4249 50 66.0251 50 65.6254C50.0003 66.0251 50.1529 66.4249 50.4577 66.7297C53.7757 70.0477 58.1869 71.8749 62.8791 71.8749H68.75C69.6129 71.8749 70.3126 71.1754 70.3126 70.3126C70.3126 69.4497 69.6129 68.75 68.75 68.75H66.8783L64.7949 59.3749H70.9111C71.0534 59.8549 71.184 60.3386 71.2929 60.8289C73.5003 70.77 73.4374 70.2714 73.4374 71.086C73.4374 74.1109 70.986 76.5626 67.9609 76.5626H54.94C55.2786 75.8517 55.4689 75.0571 55.4689 74.2189C55.4689 68.9226 48.4374 67.15 48.4374 70.3126C48.4374 71.1754 49.1371 71.8749 50 71.8749C51.2943 71.8749 52.3437 72.9243 52.3437 74.2189C52.3437 75.5111 51.2923 76.5626 50 76.5626H32.0391C28.5447 76.5626 25.9326 73.3169 26.6932 69.8971C28.7603 60.588 28.8531 59.8369 29.5669 57.9306C29.8691 57.1223 29.4591 56.222 28.6511 55.9194C27.843 55.6169 26.9428 56.0269 26.64 56.8349C25.8332 58.9909 25.7781 59.6029 23.6426 69.2189C23.3338 70.6069 23.3721 72.0511 23.7668 73.4374H22.6563C10.3596 73.4374 4.63574 88.88 14.1006 96.8749H1.5625C0.699609 96.8749 0 97.5743 0 98.4374C0 99.3003 0.699609 99.9997 1.5625 99.9997H98.4374C99.3003 99.9997 100 99.3003 100 98.4374C100 97.5743 99.3003 96.8749 98.4374 96.8749ZM46.8749 6.25C46.8749 4.52677 48.2769 3.125 50 3.125C51.7231 3.125 53.1251 4.52677 53.1251 6.25C53.1251 6.89043 53.3331 6.14843 49.4323 6.258C46.5906 6.33751 46.8749 6.78906 46.8749 6.25ZM37.3157 17.1502C42.3706 6.76737 57.6194 6.74649 62.6846 17.1502C64.6049 21.0943 64.5089 25.4871 62.5003 29.2486C62.5 22.9637 62.8497 18.75 60.4843 18.75C59.6689 18.75 58.8491 18.8955 58.4286 18.0512C57.6806 16.5547 56.1766 15.625 54.504 15.625C44.7891 15.625 44.6031 15.4125 43.186 16.2816C41.362 17.4135 41.774 18.75 40.4414 18.75H39.5157C37.1371 18.75 37.5 22.9961 37.5 29.2486C35.4911 25.4871 35.3954 21.0941 37.3157 17.1502ZM40.6251 31.25C40.6251 22.676 40.5811 22.9025 40.7563 21.8639C42.3011 21.7553 43.6651 20.8506 44.3674 19.4465C44.4714 19.2379 44.6323 19.0617 44.8269 18.9412C45.2634 18.6732 44.7566 18.75 54.504 18.75C55.8323 18.75 55.422 20.0852 57.2554 21.2227C57.8609 21.5939 58.5426 21.8131 59.2434 21.8637C59.428 22.9559 59.3749 22.8291 59.3749 31.25C59.3749 36.4194 55.1694 40.6251 50 40.6251C44.8306 40.6251 40.6251 36.4194 40.6251 31.25ZM64.1006 56.25L64.0251 55.9111C63.838 55.0689 63.0034 54.5374 62.1609 54.7249C61.3186 54.912 60.7874 55.7466 60.9746 56.5891L63.6771 68.75H62.8791C59.0217 68.75 55.3951 67.2477 52.6674 64.52C51.6806 63.5331 50.0006 64.2451 50 65.6243C49.9997 64.2454 48.32 63.5331 47.3326 64.52C44.6049 67.2477 40.9783 68.75 37.1209 68.75H36.3229L37.1837 64.8769L39.6429 64.4429C49.5954 62.6869 57.3111 55.386 59.9451 46.1563C64.32 48.3934 67.6863 51.9614 69.7163 56.25H64.1006ZM35.558 90.9688L33.9891 91.5966C31.8589 92.4486 30.8009 94.7503 31.4286 96.8749H26.5625V88.72L35.558 90.9688ZM35.6077 96.8749C34.2617 96.8749 33.8911 95.0014 35.1497 94.4977C41.6257 91.9074 41.298 92.0534 41.4917 91.9251C44.8023 89.718 45.43 89.0626 47.1611 89.0626C49.12 89.0626 50.8523 90.3111 51.4717 92.1694L51.6423 92.6817C51.9006 93.4563 52.7111 93.9014 53.5037 93.7034L73.4374 88.72V96.8749H35.6077ZM76.5626 96.8749V87.9386L78.504 87.4534C79.3411 87.244 79.85 86.3957 79.6409 85.5586C79.4317 84.7214 78.5831 84.2126 77.746 84.4217L54.0971 90.3337C52.844 87.6714 50.16 85.9374 47.1614 85.9374C44.3694 85.9374 42.9097 87.224 40.3334 88.9414L22.2539 84.4214C21.4166 84.2123 20.5684 84.7214 20.359 85.5583C20.1498 86.3954 20.6588 87.244 21.4959 87.4531L23.4373 87.9386V96.8749H22.6561C17.0299 96.8749 12.4998 92.3194 12.4998 86.7189C12.4998 81.1186 17.0559 76.5626 22.6561 76.5626H25.4111C26.99 78.47 29.3749 79.6874 32.0389 79.6874H67.9609C70.556 79.6874 72.9486 78.5449 74.592 76.5626C77.7829 76.5626 81.2034 76.2174 84.5251 79.536C90.8683 85.8849 86.4126 96.8749 77.3437 96.8749H76.5626Z" fill="black"/>
</svg>
