<svg width="30" height="31" viewBox="0 0 30 31" fill="none" xmlns="http://www.w3.org/2000/svg">
<path d="M14.8268 18.6C22.7359 18.6 29.1478 21.8385 29.1478 25.8333V31H0.505859V25.8333C0.505859 21.8385 6.91784 18.6 14.8268 18.6ZM27.2384 25.8333C27.2384 22.9813 21.6818 20.6667 14.8268 20.6667C7.97187 20.6667 2.41532 22.9813 2.41532 25.8333V28.9333H27.2384V25.8333ZM14.8268 0C16.5993 0 18.2992 0.762082 19.5525 2.11859C20.8059 3.47511 21.51 5.31493 21.51 7.23333C21.51 9.15173 20.8059 10.9916 19.5525 12.3481C18.2992 13.7046 16.5993 14.4667 14.8268 14.4667C13.0544 14.4667 11.3545 13.7046 10.1012 12.3481C8.84783 10.9916 8.14372 9.15173 8.14372 7.23333C8.14372 5.31493 8.84783 3.47511 10.1012 2.11859C11.3545 0.762082 13.0544 0 14.8268 0ZM14.8268 2.06667C13.5608 2.06667 12.3466 2.61101 11.4514 3.57995C10.5561 4.54889 10.0532 5.86305 10.0532 7.23333C10.0532 8.60362 10.5561 9.91778 11.4514 10.8867C12.3466 11.8557 13.5608 12.4 14.8268 12.4C16.0929 12.4 17.3071 11.8557 18.2023 10.8867C19.0976 9.91778 19.6005 8.60362 19.6005 7.23333C19.6005 5.86305 19.0976 4.54889 18.2023 3.57995C17.3071 2.61101 16.0929 2.06667 14.8268 2.06667Z" fill="#DB001B"/>
</svg>
