<svg width="16" height="16" viewBox="0 0 16 16" fill="none" xmlns="http://www.w3.org/2000/svg">
<path d="M14.88 0H0.62C0.277062 0 0 0.277062 0 0.62V14.88C0 15.2229 0.277062 15.5 0.62 15.5H14.88C15.2229 15.5 15.5 15.2229 15.5 14.88V0.62C15.5 0.277062 15.2229 0 14.88 0ZM14.26 14.26H10.6931V9.49763H12.7081L13.0103 7.15906H10.6931V5.66525C10.6931 4.98712 10.881 4.526 11.8517 4.526H13.0897V2.4335C12.8747 2.40444 12.1404 2.3405 11.284 2.3405C9.49763 2.3405 8.27506 3.43131 8.27506 5.43275V7.15712H6.25619V9.49569H8.277V14.26H1.24V1.24H14.26V14.26Z" fill="white"/>
</svg>
