<svg width="24" height="33" viewBox="0 0 24 33" fill="none" xmlns="http://www.w3.org/2000/svg">
<path d="M11.8939 0C5.57751 0 0.425781 4.94145 0.425781 11C0.425781 12.7184 1.15209 14.6911 2.13835 16.8434C3.12333 18.997 4.39374 21.2838 5.68199 23.4129C7.30522 26.0842 9.03216 28.6963 10.8592 31.2437L11.8939 32.6944L12.9298 31.2424C12.9298 31.2424 15.528 27.6772 18.1058 23.4129C19.3953 21.2838 20.6644 18.997 21.6494 16.8434C22.6357 14.6911 23.362 12.7184 23.362 11C23.362 4.94145 18.2103 0 11.8939 0ZM11.8939 2.44444C16.8366 2.44444 20.8135 6.259 20.8135 11C20.8135 11.9778 20.2656 13.8307 19.3405 15.851C18.4141 17.8701 17.1361 20.1092 15.8759 22.1907C13.8753 25.5041 12.6304 27.2568 11.8939 28.3018C11.1574 27.2568 9.91245 25.5041 7.9119 22.1907C6.65296 20.1092 5.37363 17.8701 4.44726 15.851C3.52217 13.8307 2.97425 11.9778 2.97425 11C2.97425 6.259 6.95113 2.44444 11.8939 2.44444ZM11.8939 8.55556C11.218 8.55556 10.5698 8.8131 10.0918 9.27152C9.61391 9.72994 9.34541 10.3517 9.34542 11C9.34541 11.6483 9.61391 12.2701 10.0918 12.7285C10.5698 13.1869 11.218 13.4444 11.8939 13.4444C12.5698 13.4444 13.218 13.1869 13.6959 12.7285C14.1738 12.2701 14.4423 11.6483 14.4423 11C14.4423 10.3517 14.1738 9.72994 13.6959 9.27152C13.218 8.8131 12.5698 8.55556 11.8939 8.55556Z" fill="#DBE0E4"/>
</svg>
