<svg width="20" height="20" viewBox="0 0 20 20" fill="none" xmlns="http://www.w3.org/2000/svg">
<path d="M18.963 0H0.790123C0.353086 0 0 0.3575 0 0.8V19.2C0 19.6425 0.353086 20 0.790123 20H18.963C19.4 20 19.7531 19.6425 19.7531 19.2V0.8C19.7531 0.3575 19.4 0 18.963 0ZM18.1728 18.4H13.6272V12.255H16.1951L16.5802 9.2375H13.6272V7.31C13.6272 6.435 13.8667 5.84 15.1037 5.84H16.6815V3.14C16.4074 3.1025 15.4716 3.02 14.3802 3.02C12.1037 3.02 10.5457 4.4275 10.5457 7.01V9.235H7.97284V12.2525H10.5481V18.4H1.58025V1.6H18.1728V18.4Z" fill="#DB001B"/>
</svg>
