<svg width="31" height="30" viewBox="0 0 31 30" fill="none" xmlns="http://www.w3.org/2000/svg">
<path d="M0.542969 14.3106V14.2688C0.914889 9.41525 2.65052 5.77508 5.6672 3.47382C8.64256 1.13072 11.8659 0.00101246 15.3784 0.00101246C19.0563 -0.0408286 22.4862 1.2144 25.5443 3.72487C28.6436 6.19349 30.1726 9.8755 30.1726 14.6454V14.9383C30.1726 19.75 28.6436 23.3483 25.5443 25.8169C22.4449 28.3274 19.015 29.5826 15.3371 29.5826H15.1718C11.5766 29.5408 8.27064 28.2856 5.21263 25.7751C2.15462 23.3065 0.584293 19.4989 0.542969 14.3106ZM14.4693 7.74161V1.13072H13.4775C13.2709 1.38177 13.1056 1.67465 12.9403 1.9257C12.775 2.17675 12.6097 2.42779 12.4444 2.72068C12.2791 2.97173 12.0725 3.30645 11.9485 3.5575C11.7832 3.80855 11.6592 4.05959 11.5353 4.35248C11.2873 4.77089 11.0807 5.1893 10.9154 5.56587C10.7088 5.94244 10.5435 6.31901 10.4195 6.65374C10.6675 6.8211 10.9567 7.03031 11.2873 7.15583C11.6592 7.28135 12.0312 7.40688 12.4031 7.49056C12.8163 7.57424 13.1882 7.61608 13.5188 7.65792C13.8908 7.69976 14.2214 7.74161 14.4693 7.74161ZM16.2049 1.13072V7.69976C16.4116 7.69976 16.6595 7.74161 16.9074 7.69976C17.1554 7.69976 17.4447 7.65792 17.6926 7.61608C18.1472 7.5324 18.6844 7.40688 19.0976 7.28135C19.5522 7.11399 19.9655 6.90478 20.2547 6.65374C19.7588 5.44035 19.2216 4.478 18.6844 3.5575C18.1472 2.637 17.5273 1.84202 16.8661 1.17256V1.13072H16.2049ZM11.7419 1.50729V1.46545C11.4526 1.59097 11.1634 1.80018 10.8328 1.9257C10.5435 2.05122 10.1716 2.21859 9.88229 2.38595C9.30375 2.67884 8.72521 3.01357 8.14667 3.39014C7.60945 3.76671 7.07223 4.18512 6.61766 4.60353C6.78296 4.77089 6.98958 4.93826 7.15488 5.06378C7.32018 5.1893 7.5268 5.35667 7.73342 5.52403C7.89872 5.60771 8.10534 5.73324 8.31196 5.9006C8.51859 6.02612 8.76653 6.19349 9.01448 6.36085C9.34508 5.60771 9.67567 4.81273 10.0889 4.10143C10.5022 3.3483 10.9567 2.637 11.4113 2.00938C11.4526 1.9257 11.4939 1.84202 11.5766 1.75834C11.6179 1.7165 11.6592 1.59097 11.7419 1.50729ZM24.3872 4.60353V4.56169C23.3541 3.76671 22.4449 3.09725 21.5358 2.67884C20.6266 2.26043 19.7175 1.84202 18.891 1.50729C19.5522 2.17675 20.1308 3.01357 20.5027 3.80855C20.9159 4.64537 21.3292 5.52403 21.6598 6.36085C21.8251 6.27717 22.0317 6.19349 22.2796 6.02612C22.4862 5.9006 22.7755 5.77508 23.0235 5.64955C23.2714 5.48219 23.478 5.31482 23.726 5.14746C23.9739 4.93826 24.2219 4.77089 24.3872 4.60353ZM23.6847 13.9341H28.437C28.437 12.386 28.1064 10.9215 27.4865 9.41525C26.908 7.95081 26.0815 6.73742 25.0484 5.69139V5.64955C24.8417 5.98428 24.5525 6.27717 24.2632 6.48637C23.9326 6.69558 23.6433 6.86294 23.3127 7.03031C23.1061 7.15583 22.8995 7.32319 22.6929 7.40688C22.4862 7.5324 22.197 7.61608 21.9904 7.74161C22.1557 8.07633 22.321 8.4529 22.4862 8.78763C22.6102 9.1642 22.8168 9.58261 22.8995 9.95918C23.1474 10.6286 23.3127 11.3399 23.478 12.0512C23.602 12.6788 23.6847 13.3483 23.6847 13.9341ZM8.72521 7.74161V7.69976C8.39461 7.5324 8.02269 7.40688 7.73342 7.23951C7.44415 7.03031 7.15488 6.8211 6.90693 6.65374C6.65899 6.52821 6.41104 6.36085 6.20442 6.19349C5.9978 6.02612 5.8325 5.85876 5.6672 5.69139C4.59276 6.73742 3.8076 7.90897 3.31171 9.28972C2.77449 10.6705 2.40257 12.2186 2.23727 13.8922H7.32018C7.32018 12.7207 7.48548 11.591 7.77475 10.4613C8.02269 9.28972 8.39461 8.41106 8.72521 7.74161ZM14.4693 13.8922V9.08052C14.1387 9.12236 13.7255 9.12236 13.3535 9.08052C12.9403 9.03868 12.5271 8.91315 12.1551 8.78763C11.8245 8.70395 11.4113 8.62027 11.0807 8.49474C10.7088 8.41106 10.3369 8.2437 10.0476 8.07633C9.79965 8.49474 9.59302 8.99684 9.42772 9.54077C9.2211 10.0429 9.09713 10.5868 8.97316 11.0889C8.89051 11.591 8.84918 12.1349 8.80786 12.5952C8.76653 13.0554 8.72521 13.5157 8.72521 13.8922H14.4693ZM16.2049 9.1642V13.8922H22.321C22.321 13.6412 22.321 13.3483 22.2796 13.0136C22.197 12.7207 22.1557 12.3441 22.1143 12.0094C21.9904 11.5073 21.8664 10.9634 21.7011 10.4613C21.5358 10.001 21.3705 9.54077 21.1639 9.1642C21.0812 8.955 20.9986 8.70395 20.9159 8.53658C20.7919 8.32738 20.668 8.20186 20.5853 8.07633C20.1308 8.41106 19.5109 8.62027 18.767 8.78763C18.0645 8.955 17.238 9.12236 16.4942 9.1642H16.2049ZM7.32018 15.273H2.23727C2.23727 15.9843 2.36124 16.7793 2.56787 17.7416C2.77449 18.7458 3.18773 19.6663 3.6423 20.6705C3.84892 21.1726 4.09687 21.6747 4.34482 22.1768C4.63409 22.637 4.96468 23.1391 5.29528 23.5994C5.54323 23.432 5.79117 23.3065 5.9978 23.1809C6.24574 23.0554 6.53501 22.8881 6.78296 22.7625C7.07223 22.637 7.3615 22.5115 7.6921 22.3441C7.98137 22.2186 8.35329 22.0512 8.72521 21.8839C8.39461 20.8379 8.02269 19.8337 7.77475 18.704C7.48548 17.6161 7.32018 16.5282 7.32018 15.3148V15.273ZM14.4693 20.1684V15.273H8.72521C8.72521 15.6077 8.76653 16.1098 8.84918 16.6119C8.89051 17.114 9.01448 17.6579 9.09713 18.2019C9.26243 18.7876 9.3864 19.3734 9.5517 19.8755C9.717 20.3776 9.88229 20.796 10.0476 21.1726C10.7914 20.8797 11.5353 20.6705 12.0312 20.545C12.5684 20.3776 13.0643 20.2521 13.5602 20.2102H14.0147C14.18 20.1684 14.3453 20.1684 14.4693 20.1684ZM16.2049 15.273V20.1266C16.4942 20.1684 16.8248 20.2102 17.1554 20.2521C17.5273 20.2939 17.9819 20.3776 18.3538 20.4613L18.9737 20.5868C19.1803 20.6705 19.4282 20.7123 19.6349 20.7542C19.8828 20.8379 20.1308 20.8797 20.3787 20.9634C20.5853 21.0471 20.7919 21.0889 20.9572 21.1726C21.4945 19.7918 21.8251 18.6621 22.0317 17.6998C22.2383 16.7793 22.321 15.9843 22.321 15.3148V15.273H16.2049ZM28.437 15.3148V15.273H23.6847V15.524C23.6433 16.319 23.5194 17.2395 23.3541 18.2019C23.1888 19.1224 22.8168 20.2102 22.321 21.5491C22.9821 21.8839 23.602 22.2186 24.0979 22.5533C24.5938 22.8881 25.0484 23.2646 25.379 23.5994C26.0815 22.8881 26.7013 21.9257 27.2386 20.6705C27.7758 19.4571 28.1477 18.2019 28.3543 16.863C28.3956 16.6119 28.3956 16.3609 28.437 16.1098V15.3148ZM14.4693 28.0345V21.5073C13.4362 21.6747 12.5684 21.8839 11.9072 22.0512C11.246 22.2186 10.7501 22.386 10.4195 22.5533C10.6675 23.1809 10.9154 23.7249 11.1634 24.227C11.4113 24.6872 11.7006 25.1893 11.9485 25.6077C12.0312 25.7751 12.1965 25.9425 12.3204 26.1517C12.4444 26.319 12.5271 26.5282 12.651 26.6956C12.775 26.9048 12.899 27.1558 13.023 27.4069C13.1882 27.6161 13.3122 27.8671 13.4775 28.0345H14.4693ZM16.2049 28.0345H17.1554C17.5273 27.7416 17.8992 27.3232 18.1885 26.863C18.5191 26.4027 18.891 25.8588 19.139 25.3985C19.4282 24.8546 19.7175 24.3525 19.9655 23.8504C20.2134 23.3483 20.42 22.8881 20.5853 22.5533C20.1308 22.386 19.5109 22.2186 18.891 22.0512C18.2712 21.8839 17.4033 21.7165 16.2049 21.5491V28.0345ZM24.3872 24.6035V24.5617C24.3045 24.4362 24.1392 24.2688 24.0153 24.1433C23.8913 24.0178 23.6847 23.8504 23.478 23.7249C23.3127 23.5994 23.1061 23.4738 22.8582 23.3483C22.6102 23.2228 22.2796 23.0554 21.9904 22.8881C21.8251 23.2228 21.5358 23.8086 21.1225 24.6035C20.7506 25.3985 20.0894 26.3609 19.2629 27.4069C20.2961 27.2395 21.2052 26.863 22.0317 26.3609C22.9408 25.9006 23.726 25.273 24.3872 24.6035ZM9.01448 23.2646V23.2228C8.72521 23.3902 8.27064 23.5994 7.81607 23.8086C7.32018 24.0178 6.78296 24.2688 6.28707 24.6035C6.57634 24.8546 6.86561 25.1056 7.11356 25.273C7.3615 25.4822 7.65077 25.6496 7.89872 25.8169C8.35329 26.1098 8.89051 26.4027 9.42772 26.6538C9.96494 26.9048 10.6261 27.1558 11.4526 27.4069C11.1634 27.0722 10.9567 26.6538 10.7501 26.319C10.5435 25.9843 10.2955 25.6496 10.0889 25.3148C9.88229 24.9801 9.717 24.6035 9.5517 24.2688C9.34508 23.9341 9.17978 23.5994 9.01448 23.2646Z" fill="white"/>
</svg>
