<svg width="29" height="30" viewBox="0 0 29 30" fill="none" xmlns="http://www.w3.org/2000/svg">
<g clip-path="url(#clip0)">
<path d="M6.45648 9C5.67512 9 4.91131 8.7654 4.26163 8.32588C3.61196 7.88635 3.1056 7.26164 2.80658 6.53073C2.50757 5.79983 2.42934 4.99556 2.58177 4.21964C2.73421 3.44372 3.11047 2.73098 3.66297 2.17157C4.21547 1.61216 4.91941 1.2312 5.68575 1.07686C6.4521 0.92252 7.24644 1.00173 7.96832 1.30448C8.6902 1.60723 9.3072 2.11992 9.7413 2.77772C10.1754 3.43552 10.4071 4.20888 10.4071 5C10.4071 6.06087 9.99087 7.07828 9.24999 7.82843C8.5091 8.57857 7.50425 9 6.45648 9ZM6.45648 3C6.0658 3 5.68389 3.1173 5.35906 3.33706C5.03422 3.55682 4.78104 3.86918 4.63153 4.23463C4.48203 4.60009 4.44291 5.00222 4.51913 5.39018C4.59534 5.77814 4.78347 6.13451 5.05972 6.41421C5.33598 6.69392 5.68794 6.8844 6.07112 6.96157C6.45429 7.03874 6.85146 6.99914 7.2124 6.84776C7.57334 6.69638 7.88184 6.44004 8.09889 6.11114C8.31594 5.78224 8.43179 5.39556 8.43179 5C8.43179 4.46957 8.22368 3.96086 7.85323 3.58579C7.48279 3.21072 6.98036 3 6.45648 3Z" fill="white"/>
<path d="M22.2582 9C21.4769 9 20.7131 8.7654 20.0634 8.32588C19.4137 7.88635 18.9074 7.26164 18.6083 6.53073C18.3093 5.79983 18.2311 4.99556 18.3835 4.21964C18.536 3.44372 18.9122 2.73098 19.4647 2.17157C20.0172 1.61216 20.7212 1.2312 21.4875 1.07686C22.2539 0.92252 23.0482 1.00173 23.7701 1.30448C24.492 1.60723 25.109 2.11992 25.5431 2.77772C25.9772 3.43552 26.2089 4.20888 26.2089 5C26.2089 6.06087 25.7926 7.07828 25.0518 7.82843C24.3109 8.57857 23.306 9 22.2582 9ZM22.2582 3C21.8676 3 21.4857 3.1173 21.1608 3.33706C20.836 3.55682 20.5828 3.86918 20.4333 4.23463C20.2838 4.60009 20.2447 5.00222 20.3209 5.39018C20.3971 5.77814 20.5852 6.13451 20.8615 6.41421C21.1377 6.69392 21.4897 6.8844 21.8729 6.96157C22.256 7.03874 22.6532 6.99914 23.0142 6.84776C23.3751 6.69638 23.6836 6.44004 23.9007 6.11114C24.1177 5.78224 24.2336 5.39556 24.2336 5C24.2336 4.46957 24.0254 3.96086 23.655 3.58579C23.2846 3.21072 22.7821 3 22.2582 3Z" fill="white"/>
<path d="M24.234 30H20.2834C19.7595 30 19.2571 29.7893 18.8866 29.4142C18.5162 29.0391 18.3081 28.5304 18.3081 28V21H20.2834V28H24.234V19H26.2093V13C26.2093 12.7348 26.1052 12.4804 25.92 12.2929C25.7348 12.1054 25.4836 12 25.2216 12H18.8809L14.3574 20L9.83398 12H3.49324C3.23129 12 2.98008 12.1054 2.79486 12.2929C2.60964 12.4804 2.50558 12.7348 2.50558 13V19H4.48089V28H8.43151V21H10.4068V28C10.4068 28.5304 10.1987 29.0391 9.82826 29.4142C9.45782 29.7893 8.95539 30 8.43151 30H4.48089C3.95701 30 3.45458 29.7893 3.08414 29.4142C2.71369 29.0391 2.50558 28.5304 2.50558 28V21C1.9817 21 1.47927 20.7893 1.10883 20.4142C0.738386 20.0391 0.530273 19.5304 0.530273 19V13C0.530273 12.2044 0.842442 11.4413 1.39811 10.8787C1.95377 10.3161 2.70741 10 3.49324 10H10.9797L14.3574 16L17.7352 10H25.2216C26.0075 10 26.7611 10.3161 27.3168 10.8787C27.8724 11.4413 28.1846 12.2044 28.1846 13V19C28.1846 19.5304 27.9765 20.0391 27.606 20.4142C27.2356 20.7893 26.7332 21 26.2093 21V28C26.2093 28.5304 26.0012 29.0391 25.6307 29.4142C25.2603 29.7893 24.7579 30 24.234 30Z" fill="white"/>
</g>
<defs>
<clipPath id="clip0">
<rect width="27.6543" height="30" fill="white" transform="translate(0.530273)"/>
</clipPath>
</defs>
</svg>
