<svg width="31" height="30" viewBox="0 0 31 30" fill="none" xmlns="http://www.w3.org/2000/svg">
<path d="M28.4565 23.7375L17.2466 12.3875C18.3947 9.4625 17.8021 6.0125 15.4688 3.6375C12.6293 0.7625 8.20955 0.5 5.0614 2.825L9.80215 7.6375L8.04906 9.4L3.32066 4.6125C1.02437 7.7875 1.28363 12.275 4.12313 15.1375C6.41943 17.4625 9.76511 18.075 12.6293 16.9875L23.8762 28.375C24.3577 28.8625 25.1355 28.8625 25.617 28.375L28.4565 25.5C28.9503 25.025 28.9503 24.2375 28.4565 23.7375ZM24.7528 25.7375L13.0738 13.9125C12.3207 14.475 11.4812 14.8125 10.6046 14.9375C8.9256 15.1875 7.16017 14.675 5.87622 13.375C4.70338 12.2 4.16017 10.625 4.24659 9.075L8.0614 12.9375L13.296 7.6375L9.48116 3.775C11.012 3.6875 12.5552 4.2375 13.7281 5.4125C14.3595 6.05076 14.8287 6.83456 15.0953 7.69669C15.362 8.55883 15.4181 9.47358 15.2589 10.3625C15.1048 11.2583 14.7313 12.1007 14.1725 12.8125L25.8392 24.625L24.7528 25.7375Z" fill="white"/>
</svg>
