<svg width="31" height="22" viewBox="0 0 31 22" fill="none" xmlns="http://www.w3.org/2000/svg">
<g clip-path="url(#clip0)">
<path d="M30.1726 5.7L15.7387 0H14.9768L0.542969 5.7V19.2857H2.65937V8.57143L7.54826 10.5C6.46832 12.0571 5.88487 13.9116 5.8763 15.8143C5.85514 16.05 5.85514 16.2857 5.8763 16.5214V16.7571L6.46889 17.6143L14.8922 21.4286H15.7599L24.0985 17.55L24.6911 16.6929V15.75C24.6791 13.8578 24.1038 12.0132 23.0403 10.4571L30.1726 7.65V5.7ZM22.7229 15.7286V15.8786L15.3578 19.2857L7.95038 15.8571C7.94047 15.8149 7.94047 15.7708 7.95038 15.7286C7.96189 14.077 8.52087 12.4772 9.53768 11.1857L14.998 13.3286H15.7599L21.1779 11.1857C22.1854 12.4796 22.73 14.081 22.7229 15.7286ZM15.3578 11.25L3.7599 6.68571L15.3578 2.14286L26.9557 6.72857L15.3578 11.25Z" fill="white"/>
</g>
<defs>
<clipPath id="clip0">
<rect width="29.6296" height="21.4286" fill="white" transform="translate(0.542969)"/>
</clipPath>
</defs>
</svg>
