<svg width="23" height="32" viewBox="0 0 23 32" fill="none" xmlns="http://www.w3.org/2000/svg">
<path d="M11.4728 0C5.61613 0 0.839355 4.83649 0.839355 10.7664C0.839355 12.4483 1.51281 14.3791 2.42728 16.4857C3.34058 18.5935 4.51852 20.8317 5.71301 22.9156C7.2181 25.5302 8.81936 28.0868 10.5134 30.58L11.4728 32L12.4333 30.5788C12.4333 30.5788 14.8424 27.0893 17.2326 22.9156C18.4282 20.8317 19.605 18.5935 20.5183 16.4857C21.4328 14.3791 22.1062 12.4483 22.1062 10.7664C22.1062 4.83649 17.3295 0 11.4728 0ZM11.4728 2.39252C16.0558 2.39252 19.7432 6.12606 19.7432 10.7664C19.7432 11.7234 19.2352 13.5369 18.3774 15.5143C17.5185 17.4905 16.3335 19.6821 15.165 21.7193C13.31 24.9624 12.1557 26.6778 11.4728 27.7006C10.7899 26.6778 9.63557 24.9624 7.78063 21.7193C6.61331 19.6821 5.42709 17.4905 4.56815 15.5143C3.71038 13.5369 3.20234 11.7234 3.20234 10.7664C3.20234 6.12606 6.88978 2.39252 11.4728 2.39252ZM11.4728 8.37383C10.8461 8.37383 10.2451 8.6259 9.80191 9.07459C9.35876 9.52327 9.10981 10.1318 9.10981 10.7664C9.10981 11.4009 9.35876 12.0094 9.80191 12.4581C10.2451 12.9068 10.8461 13.1589 11.4728 13.1589C12.0995 13.1589 12.7005 12.9068 13.1437 12.4581C13.5868 12.0094 13.8358 11.4009 13.8358 10.7664C13.8358 10.1318 13.5868 9.52327 13.1437 9.07459C12.7005 8.6259 12.0995 8.37383 11.4728 8.37383Z" fill="#DB001B"/>
</svg>
