<svg width="31" height="22" viewBox="0 0 31 22" fill="none" xmlns="http://www.w3.org/2000/svg">
<g clip-path="url(#clip0)">
<path d="M26.1322 21.8182H4.58337C2.35576 21.8182 0.542969 19.9827 0.542969 17.7273V4.09091C0.542969 1.83545 2.35576 0 4.58337 0H26.1322C28.3598 0 30.1726 1.83545 30.1726 4.09091V17.7273C30.1726 19.9827 28.3598 21.8182 26.1322 21.8182ZM4.58337 2.72727C3.84128 2.72727 3.23657 3.33955 3.23657 4.09091V17.7273C3.23657 18.4786 3.84128 19.0909 4.58337 19.0909H26.1322C26.8743 19.0909 27.479 18.4786 27.479 17.7273V4.09091C27.479 3.33955 26.8743 2.72727 26.1322 2.72727H4.58337ZM12.6642 15H7.27698C6.91978 15 6.57722 14.8563 6.32464 14.6006C6.07207 14.3449 5.93017 13.998 5.93017 13.6364C5.93017 13.2747 6.07207 12.9279 6.32464 12.6721C6.57722 12.4164 6.91978 12.2727 7.27698 12.2727H12.6642C13.0214 12.2727 13.3639 12.4164 13.6165 12.6721C13.8691 12.9279 14.011 13.2747 14.011 13.6364C14.011 13.998 13.8691 14.3449 13.6165 14.6006C13.3639 14.8563 13.0214 15 12.6642 15ZM12.6642 9.54545H7.27698C6.91978 9.54545 6.57722 9.40179 6.32464 9.14605C6.07207 8.89032 5.93017 8.54348 5.93017 8.18182C5.93017 7.82016 6.07207 7.47331 6.32464 7.21758C6.57722 6.96185 6.91978 6.81818 7.27698 6.81818H12.6642C13.0214 6.81818 13.3639 6.96185 13.6165 7.21758C13.8691 7.47331 14.011 7.82016 14.011 8.18182C14.011 8.54348 13.8691 8.89032 13.6165 9.14605C13.3639 9.40179 13.0214 9.54545 12.6642 9.54545Z" fill="white"/>
<path d="M20.7454 11.5909C22.233 11.5909 23.439 10.3699 23.439 8.86364C23.439 7.35741 22.233 6.13637 20.7454 6.13637C19.2577 6.13637 18.0518 7.35741 18.0518 8.86364C18.0518 10.3699 19.2577 11.5909 20.7454 11.5909Z" fill="white"/>
<path d="M20.7449 12.7582C18.6412 12.7582 17.3779 13.7332 17.3779 14.7068C17.3779 15.1936 18.6412 15.6818 20.7449 15.6818C22.7193 15.6818 24.1119 15.195 24.1119 14.7068C24.1119 13.7332 22.7921 12.7582 20.7449 12.7582Z" fill="white"/>
</g>
<defs>
<clipPath id="clip0">
<rect width="29.6296" height="21.8182" fill="white" transform="translate(0.542969)"/>
</clipPath>
</defs>
</svg>
