<svg width="33" height="32" viewBox="0 0 33 32" fill="none" xmlns="http://www.w3.org/2000/svg">
<path d="M25.0801 31.9999C24.7725 31.999 24.4658 31.9641 24.1654 31.8958C18.4454 30.6706 13.1757 27.798 8.96295 23.6085C4.84006 19.4099 1.98062 14.0641 0.730589 8.21797C0.583194 7.48937 0.619371 6.73375 0.835638 6.02381C1.0519 5.31388 1.44098 4.67352 1.96544 4.16434L5.62427 0.51796C5.81115 0.334966 6.0332 0.194833 6.27592 0.106707C6.51865 0.018581 6.77659 -0.0155575 7.03292 0.00651958C7.2987 0.0352293 7.55518 0.123879 7.78432 0.266235C8.01347 0.408591 8.20971 0.601196 8.35924 0.830506L12.9328 7.82966C13.1043 8.10123 13.1871 8.42264 13.169 8.74659C13.1509 9.07053 13.0328 9.3799 12.8322 9.62917L10.5362 12.4705C11.4506 14.5659 12.7456 16.4598 14.3506 18.049C15.9452 19.6958 17.83 21.0108 19.9028 21.9227L22.7476 19.5833C22.9865 19.3878 23.2773 19.2722 23.5812 19.2519C23.8851 19.2316 24.1877 19.3075 24.4489 19.4697L31.355 24.0916C31.592 24.2381 31.7939 24.4382 31.9456 24.677C32.0972 24.9158 32.1948 25.187 32.2308 25.4703C32.2669 25.7537 32.2406 26.0418 32.1539 26.3132C32.0671 26.5845 31.9222 26.832 31.73 27.0371L28.1627 30.6929C27.7574 31.1104 27.2765 31.4409 26.7474 31.6652C26.2184 31.8895 25.6517 32.0032 25.0801 31.9999ZM6.88657 1.8818L3.22774 5.52818C2.9327 5.81283 2.7143 6.1721 2.59402 6.57065C2.47373 6.96919 2.4557 7.3933 2.54171 7.80124C3.70405 13.287 6.3759 18.3069 10.2344 22.2542C14.1989 26.1956 19.1579 28.8976 24.5404 30.0489C24.9478 30.1371 25.37 30.1192 25.7691 29.9969C26.1682 29.8746 26.5318 29.6516 26.8272 29.348L30.3945 25.6922L23.7263 21.2313L20.6712 23.7506C20.5542 23.8464 20.4164 23.9112 20.2697 23.9393C20.1231 23.9673 19.972 23.9578 19.8297 23.9116C17.2929 22.9438 14.994 21.4076 13.0974 19.4128C11.1357 17.516 9.61296 15.1849 8.6428 12.5936C8.60176 12.4368 8.6004 12.2716 8.63884 12.114C8.67729 11.9564 8.75426 11.8117 8.86233 11.6939L11.332 8.6347L6.88657 1.8818Z" fill="#DB001B"/>
</svg>
