<svg width="21" height="20" viewBox="0 0 21 20" fill="none" xmlns="http://www.w3.org/2000/svg">
<path d="M13.9083 9.404C13.9201 7.912 12.7043 6.54399 11.1982 6.35499L11.0994 6.34C11.0239 6.32481 10.9472 6.31611 10.8702 6.314C10.5611 6.314 10.4791 6.54 10.4574 6.675C10.4451 6.73106 10.444 6.78906 10.4542 6.84557C10.4643 6.90207 10.4856 6.95594 10.5167 7.00399C10.6194 7.14899 10.7991 7.174 10.9433 7.196C10.9858 7.202 11.0263 7.20699 11.0589 7.21599C12.413 7.53099 12.8693 8.02799 13.0915 9.43099C13.0974 9.466 13.0994 9.508 13.1014 9.553C13.1112 9.72 13.132 10.069 13.4915 10.069C13.5211 10.069 13.5527 10.067 13.5863 10.061C13.9211 10.008 13.9102 9.689 13.9053 9.536C13.9028 9.49904 13.9028 9.46195 13.9053 9.425C13.9064 9.41838 13.9071 9.4117 13.9073 9.40499L13.9083 9.404Z" fill="#DB001B"/>
<path d="M10.7829 5.80701C10.8224 5.81001 10.8619 5.81301 10.8926 5.81801C13.1148 6.17601 14.138 7.27601 14.4214 9.61801C14.4264 9.65801 14.4264 9.70601 14.4274 9.75801C14.4303 9.94101 14.4363 10.321 14.8274 10.329H14.8392C14.8929 10.3319 14.9466 10.3231 14.9967 10.3033C15.0468 10.2835 15.0921 10.253 15.1296 10.214C15.2511 10.081 15.2432 9.88401 15.2363 9.72401C15.2343 9.68601 15.2323 9.64901 15.2333 9.61701C15.2609 7.22201 13.2777 5.05001 10.9884 4.97001L10.9607 4.97101C10.9519 4.97233 10.943 4.973 10.934 4.97301C10.9113 4.97301 10.8827 4.97101 10.853 4.96901C10.8136 4.96537 10.7741 4.96336 10.7345 4.96301C10.3701 4.96301 10.3009 5.23301 10.2921 5.39501C10.2723 5.76801 10.617 5.79501 10.7829 5.80701ZM14.3138 12.644C14.2662 12.6063 14.2191 12.568 14.1726 12.529C13.9296 12.325 13.6708 12.137 13.4219 11.955C13.3699 11.9171 13.3178 11.8791 13.2659 11.841C12.9459 11.607 12.6585 11.492 12.3869 11.492C12.0214 11.492 11.7024 11.704 11.4387 12.121C11.3222 12.305 11.18 12.395 11.0061 12.395C10.8848 12.3906 10.7658 12.3596 10.6575 12.304C9.62539 11.814 8.88762 11.064 8.46589 10.074C8.26243 9.59401 8.32762 9.28201 8.68712 9.02701C8.89058 8.88301 9.26984 8.61401 9.24317 8.09901C9.21354 7.51401 7.97799 5.75401 7.45749 5.55401C7.23546 5.46917 6.99062 5.46846 6.76811 5.55201C6.17058 5.76201 5.74095 6.13201 5.52663 6.61901C5.31922 7.09101 5.3291 7.64401 5.55428 8.22001C6.20317 9.88601 7.11478 11.338 8.26638 12.536C9.39231 13.709 10.777 14.669 12.3809 15.391C12.5251 15.456 12.6772 15.491 12.7879 15.517L12.8817 15.541C12.8945 15.5448 12.9078 15.5468 12.9212 15.547H12.934C13.6886 15.547 14.5943 14.827 14.8728 14.005C15.1167 13.285 14.6713 12.93 14.3138 12.645V12.644ZM11.1168 7.71001C10.9884 7.71301 10.7187 7.72001 10.6239 8.00601C10.5805 8.14001 10.5854 8.25601 10.6397 8.35101C10.7197 8.49101 10.8738 8.53401 11.013 8.55701C11.5187 8.64201 11.7795 8.93501 11.8308 9.47701C11.8555 9.73101 12.0185 9.90701 12.2279 9.90701C12.2437 9.90735 12.2595 9.90668 12.2753 9.90501C12.5271 9.87301 12.6486 9.68001 12.6377 9.33001C12.6417 8.96401 12.459 8.55001 12.1479 8.22001C11.8358 7.88801 11.4595 7.70101 11.1168 7.71001Z" fill="#DB001B"/>
<rect x="1.43262" y="1" width="17.7531" height="18" rx="1" stroke="#DB001B" stroke-width="2"/>
</svg>
