<svg width="16" height="12" viewBox="0 0 16 12" fill="none" xmlns="http://www.w3.org/2000/svg">
<path d="M14.7273 0H0.545455C0.24375 0 0 0.24375 0 0.545455V11.4545C0 11.7563 0.24375 12 0.545455 12H14.7273C15.029 12 15.2727 11.7563 15.2727 11.4545V0.545455C15.2727 0.24375 15.029 0 14.7273 0ZM14.0455 1.88864V10.7727H1.22727V1.88864L0.756818 1.52216L1.4267 0.661364L2.15625 1.22898H13.1182L13.8477 0.661364L14.5176 1.52216L14.0455 1.88864ZM13.1182 1.22727L7.63636 5.48864L2.15455 1.22727L1.425 0.659659L0.755114 1.52045L1.22557 1.88693L7.0483 6.4142C7.21575 6.5443 7.42176 6.61492 7.63381 6.61492C7.84586 6.61492 8.05187 6.5443 8.21932 6.4142L14.0455 1.88864L14.5159 1.52216L13.846 0.661364L13.1182 1.22727Z" fill="white"/>
</svg>
