<svg width="21" height="25" viewBox="0 0 21 25" fill="none" xmlns="http://www.w3.org/2000/svg">
<path d="M11.401 6.4998C11.401 6.81806 11.2745 7.12329 11.0495 7.34833C10.8245 7.57338 10.5192 7.6998 10.201 7.6998C9.88272 7.6998 9.57749 7.57338 9.35245 7.34833C9.12741 7.12329 9.00098 6.81806 9.00098 6.4998C9.00098 6.18154 9.12741 5.87632 9.35245 5.65128C9.57749 5.42623 9.88272 5.2998 10.201 5.2998C10.5192 5.2998 10.8245 5.42623 11.0495 5.65128C11.2745 5.87632 11.401 6.18154 11.401 6.4998Z" fill="#DBE0E4"/>
<path d="M9.30078 9.7999V15.7999C9.30078 16.0386 9.3956 16.2675 9.56439 16.4363C9.73317 16.6051 9.96209 16.6999 10.2008 16.6999C10.4395 16.6999 10.6684 16.6051 10.8372 16.4363C11.006 16.2675 11.1008 16.0386 11.1008 15.7999V9.7999C11.1008 9.56121 11.006 9.33229 10.8372 9.16351C10.6684 8.99472 10.4395 8.8999 10.2008 8.8999C9.96209 8.8999 9.73317 8.99472 9.56439 9.16351C9.3956 9.33229 9.30078 9.56121 9.30078 9.7999Z" fill="#DBE0E4"/>
<path d="M0.300781 3.5C0.300781 2.70435 0.616852 1.94129 1.17946 1.37868C1.74207 0.816071 2.50513 0.5 3.30078 0.5H17.1008C17.4947 0.5 17.8849 0.577597 18.2488 0.728361C18.6128 0.879126 18.9435 1.1001 19.2221 1.37868C19.5007 1.65726 19.7217 1.98797 19.8724 2.35195C20.0232 2.71593 20.1008 3.10603 20.1008 3.5V20.6C20.1008 20.8387 20.006 21.0676 19.8372 21.2364C19.6684 21.4052 19.4395 21.5 19.2008 21.5H2.10078C2.10078 21.8183 2.22721 22.1235 2.45225 22.3485C2.6773 22.5736 2.98252 22.7 3.30078 22.7H19.2008C19.4395 22.7 19.6684 22.7948 19.8372 22.9636C20.006 23.1324 20.1008 23.3613 20.1008 23.6C20.1008 23.8387 20.006 24.0676 19.8372 24.2364C19.6684 24.4052 19.4395 24.5 19.2008 24.5H3.30078C2.50513 24.5 1.74207 24.1839 1.17946 23.6213C0.616852 23.0587 0.300781 22.2957 0.300781 21.5V3.5ZM18.3008 19.7V3.5C18.3008 3.18174 18.1744 2.87652 17.9493 2.65147C17.7243 2.42643 17.419 2.3 17.1008 2.3H3.30078C2.98252 2.3 2.6773 2.42643 2.45225 2.65147C2.22721 2.87652 2.10078 3.18174 2.10078 3.5V19.7H18.3008Z" fill="#DBE0E4"/>
</svg>
