<svg width="20" height="25" viewBox="0 0 20 25" fill="none" xmlns="http://www.w3.org/2000/svg">
<path d="M10.5881 5.0001C10.5881 4.7614 10.4951 4.53248 10.3296 4.3637C10.1642 4.19492 9.93973 4.1001 9.70572 4.1001C9.4717 4.1001 9.24727 4.19492 9.0818 4.3637C8.91633 4.53248 8.82337 4.7614 8.82337 5.0001V6.9249C8.27529 7.08374 7.77805 7.38734 7.38188 7.80503C6.98571 8.22271 6.70467 8.73967 6.56715 9.30365C6.42964 9.86763 6.44053 10.4586 6.59872 11.017C6.75691 11.5753 7.0568 12.0811 7.46807 12.4833L5.94572 16.3665C5.86911 16.5858 5.8788 16.8269 5.97275 17.0391C6.06671 17.2512 6.23762 17.418 6.44959 17.5044C6.66156 17.5907 6.89809 17.5899 7.10951 17.5022C7.32092 17.4144 7.49077 17.2465 7.58337 17.0337L9.03631 13.3293C9.47774 13.4242 9.9337 13.4242 10.3751 13.3293L11.8281 17.0337C11.9207 17.2465 12.0905 17.4144 12.3019 17.5022C12.5133 17.5899 12.7499 17.5907 12.9618 17.5044C13.1738 17.418 13.3447 17.2512 13.4387 17.0391C13.5326 16.8269 13.5423 16.5858 13.4657 16.3665L11.9434 12.4833C12.3546 12.0811 12.6545 11.5753 12.8127 11.017C12.9709 10.4586 12.9818 9.86763 12.8443 9.30365C12.7068 8.73967 12.4257 8.22271 12.0296 7.80503C11.6334 7.38734 11.1361 7.08374 10.5881 6.9249V5.0001ZM8.23513 10.1001C8.23513 9.70227 8.39007 9.32074 8.66586 9.03944C8.94164 8.75813 9.31569 8.6001 9.70572 8.6001C10.0957 8.6001 10.4698 8.75813 10.7456 9.03944C11.0214 9.32074 11.1763 9.70227 11.1763 10.1001C11.1763 10.4979 11.0214 10.8795 10.7456 11.1608C10.4698 11.4421 10.0957 11.6001 9.70572 11.6001C9.31569 11.6001 8.94164 11.4421 8.66586 11.1608C8.39007 10.8795 8.23513 10.4979 8.23513 10.1001Z" fill="#DBE0E4"/>
<path d="M2.94118 0.5C2.16113 0.5 1.41303 0.816071 0.861451 1.37868C0.309873 1.94129 0 2.70435 0 3.5V21.5C0 22.2957 0.309873 23.0587 0.861451 23.6213C1.41303 24.1839 2.16113 24.5 2.94118 24.5H18.5294C18.7634 24.5 18.9879 24.4052 19.1533 24.2364C19.3188 24.0676 19.4118 23.8387 19.4118 23.6C19.4118 23.3613 19.3188 23.1324 19.1533 22.9636C18.9879 22.7948 18.7634 22.7 18.5294 22.7H2.94118C2.62916 22.7 2.32992 22.5736 2.10929 22.3485C1.88866 22.1235 1.76471 21.8183 1.76471 21.5H18.5294C18.7634 21.5 18.9879 21.4052 19.1533 21.2364C19.3188 21.0676 19.4118 20.8387 19.4118 20.6V3.5C19.4118 3.10603 19.3357 2.71593 19.1879 2.35195C19.0401 1.98797 18.8234 1.65726 18.5503 1.37868C18.2772 1.1001 17.953 0.879126 17.5961 0.728361C17.2393 0.577597 16.8568 0.5 16.4706 0.5H2.94118ZM17.6471 19.7H1.76471V3.5C1.76471 3.18174 1.88866 2.87652 2.10929 2.65147C2.32992 2.42643 2.62916 2.3 2.94118 2.3H16.4706C16.7826 2.3 17.0818 2.42643 17.3025 2.65147C17.5231 2.87652 17.6471 3.18174 17.6471 3.5V19.7Z" fill="#DBE0E4"/>
</svg>
