<svg width="19" height="25" viewBox="0 0 19 25" fill="none" xmlns="http://www.w3.org/2000/svg">
<path d="M10.6006 0.5H2.35059C1.92871 0.5 1.57324 0.644531 1.28418 0.933594C0.995117 1.22266 0.850586 1.57812 0.850586 2V23C0.850586 23.4219 0.995117 23.7773 1.28418 24.0664C1.57324 24.3555 1.92871 24.5 2.35059 24.5H16.6006C17.0225 24.5 17.3779 24.3555 17.667 24.0664C17.9561 23.7773 18.1006 23.4219 18.1006 23V8L10.6006 0.5ZM16.6006 8.63281V8.75H9.85059V2H9.99121L16.6006 8.63281ZM2.35059 23V2H8.35059V10.25H16.6006V23H2.35059Z" fill="#DBE0E4"/>
</svg>
