<svg width="20" height="25" viewBox="0 0 20 25" fill="none" xmlns="http://www.w3.org/2000/svg">
<path d="M3.33301 5C3.33301 4.60218 3.5086 4.22064 3.82116 3.93934C4.13372 3.65804 4.55765 3.5 4.99967 3.5H14.9997C15.4417 3.5 15.8656 3.65804 16.1782 3.93934C16.4907 4.22064 16.6663 4.60218 16.6663 5V6.5C16.6663 6.89782 16.4907 7.27936 16.1782 7.56066C15.8656 7.84196 15.4417 8 14.9997 8H4.99967C4.55765 8 4.13372 7.84196 3.82116 7.56066C3.5086 7.27936 3.33301 6.89782 3.33301 6.5V5ZM4.99967 5V6.5H14.9997V5H4.99967Z" fill="#DBE0E4"/>
<path d="M0 3.5V21.5C0 22.2956 0.351189 23.0587 0.976311 23.6213C1.60143 24.1839 2.44928 24.5 3.33333 24.5H19.1667C19.3877 24.5 19.5996 24.421 19.7559 24.2803C19.9122 24.1397 20 23.9489 20 23.75C20 23.5511 19.9122 23.3603 19.7559 23.2197C19.5996 23.079 19.3877 23 19.1667 23H3.33333C2.89131 23 2.46738 22.842 2.15482 22.5607C1.84226 22.2794 1.66667 21.8978 1.66667 21.5H18.3333C18.7754 21.5 19.1993 21.342 19.5118 21.0607C19.8244 20.7794 20 20.3978 20 20V3.5C20 2.70435 19.6488 1.94129 19.0237 1.37868C18.3986 0.81607 17.5507 0.5 16.6667 0.5H3.33333C2.44928 0.5 1.60143 0.81607 0.976311 1.37868C0.351189 1.94129 0 2.70435 0 3.5ZM16.6667 2C17.1087 2 17.5326 2.15804 17.8452 2.43934C18.1577 2.72064 18.3333 3.10217 18.3333 3.5V20H1.66667V3.5C1.66667 3.10217 1.84226 2.72064 2.15482 2.43934C2.46738 2.15804 2.89131 2 3.33333 2H16.6667Z" fill="#DBE0E4"/>
</svg>
