<svg width="35" height="26" viewBox="0 0 35 26" fill="none" xmlns="http://www.w3.org/2000/svg">
<path d="M33.0113 5.89305H7.1935L6.23901 0.94309C6.18459 0.672874 6.03831 0.430536 5.82562 0.25826C5.61293 0.0859839 5.34731 -0.00532061 5.075 0.000239766H0.418945V2.35737H4.12051L8.56704 24.9858C8.62146 25.256 8.76774 25.4983 8.98043 25.6706C9.19311 25.8429 9.45873 25.9342 9.73105 25.9286H30.6833V23.5715H10.6855L9.73105 18.8572H30.6833C30.9524 18.8639 31.2154 18.7759 31.4276 18.6083C31.6399 18.4407 31.7882 18.2038 31.8473 17.938L34.1753 7.3309C34.2143 7.15603 34.2134 6.97446 34.1727 6.8C34.1319 6.62554 34.0524 6.46279 33.9401 6.32414C33.8279 6.18549 33.6859 6.07459 33.5249 5.99989C33.364 5.92519 33.1883 5.88865 33.0113 5.89305ZM29.7521 16.5001H9.28872L7.65911 8.25018H31.5563L29.7521 16.5001Z" fill="#DB001B"/>
</svg>
