<svg width="100" height="100" viewBox="0 0 100 100" fill="none" xmlns="http://www.w3.org/2000/svg">
<path d="M1.56579 99.999H98.4407C99.3036 99.999 100.003 99.2992 100.003 98.4364C100.003 97.5735 99.3036 96.8738 98.4407 96.8738H48.9241V78.6595C51.0224 78.1032 52.7076 76.4487 53.2544 74.2613L53.8656 71.817H67.9904C75.1716 71.817 78.0641 62.5378 72.2076 58.4384L57.731 48.3047C57.7336 47.2278 57.7416 46.2653 57.755 45.3973H64.5853C69.159 45.3973 71.7193 40.0724 68.8624 36.5015C58.4164 23.4404 59.1553 24.3551 59.065 24.265C57.417 22.6168 55.7087 22.8974 53.2056 22.8974C53.5156 22.4004 53.5396 22.3013 54.5296 20.0556C55.467 17.9219 55.9693 15.6097 55.9693 13.2506C55.9693 10.5973 54.5901 8.2748 52.4467 6.81854C52.4467 4.76991 52.6218 3.15645 50.957 1.48536C47.7559 -1.70506 42.2761 0.584386 42.2761 5.08417V6.81854C40.1336 8.2744 38.7536 10.5965 38.7536 13.2506C38.7536 15.5904 39.2378 17.8801 40.1941 20.0576C41.1593 22.2469 41.1953 22.3812 41.5176 22.8974C39.1196 22.8974 37.3164 22.607 35.6584 24.2652C35.5467 24.3765 34.7821 25.3521 34.1556 26.1299C32.8653 27.7259 35.2507 29.7778 36.6733 27.9865C37.9058 26.4435 37.9896 26.1759 38.6767 26.0488C38.8964 26.008 37.8218 26.0224 55.7596 26.0224C56.7447 26.0224 56.9404 26.6404 58.0293 27.9591C58.2576 28.2552 57.0947 26.7912 66.4221 38.4535C67.647 39.9844 66.5458 42.2721 64.5856 42.2721H49.1227C48.8353 42.2721 48.9236 42.6407 48.9236 33.4558C49.623 33.8295 50.1884 34.443 50.4804 35.2401L51.107 38.819C51.2379 39.5664 51.8873 40.1118 52.6461 40.1118H60.449C61.7476 40.1118 62.4836 38.6101 61.6776 37.5841L57.1698 31.8461C56.6367 31.1673 55.6547 31.0493 54.9761 31.5824C54.2973 32.1153 54.1793 33.0975 54.7124 33.7764L55.659 34.9813C55.4878 35.6398 55.3416 36.2838 55.2164 36.987H53.9587L53.5367 34.577C53.3841 33.7013 52.5121 32.1493 51.1336 31.1601C48.9081 29.5513 45.8633 29.5195 43.591 31.1578C42.265 32.1118 41.3473 33.6493 41.185 34.5775L40.7644 36.987H39.5058C39.3807 36.2855 39.2344 35.6413 39.0639 34.9815L40.0107 33.7758C40.5436 33.0967 40.4253 32.1147 39.7464 31.5821C39.0676 31.0493 38.0856 31.1678 37.5527 31.8464L33.0461 37.5841C32.2438 38.6055 32.9701 40.1118 34.275 40.1118H42.0776C42.837 40.1118 43.4861 39.5661 43.617 38.8181L44.2416 35.2395C44.529 34.4561 45.0901 33.8338 45.7984 33.4558V42.0727C45.7984 42.3795 46.6258 42.2721 30.1381 42.2721C28.1898 42.2721 27.0665 39.9973 28.3028 38.4515L28.6036 38.0747C29.1418 37.3998 29.0313 36.417 28.3568 35.8787C27.6822 35.3407 26.6989 35.451 26.1608 36.1255L25.8612 36.501C22.9712 40.1138 25.6032 45.3967 30.1381 45.3967H36.967C36.983 46.4567 36.991 47.649 36.9913 49.003C34.8527 62.3855 36.7073 70.3427 39.5938 91.7215L36.309 92.5427C34.1218 93.0895 32.4687 94.7747 31.9121 96.8733H1.56579C0.702904 96.8733 0.0032959 97.573 0.0032959 98.4358C0.0032959 99.2987 0.70271 99.999 1.56579 99.999ZM45.4013 5.08437C45.4013 3.33614 47.5233 2.4754 48.747 3.69494C49.3541 4.30431 49.3218 4.93085 49.3218 5.4916C48.071 5.22325 46.7396 5.20448 45.4013 5.4916V5.08437ZM43.4301 9.87734C44.3701 9.02285 44.399 9.4166 44.9218 8.91268C46.4496 8.23983 48.2727 8.23965 49.801 8.91268C50.2973 9.391 50.3807 9.04805 51.2927 9.87734C53.1113 11.5303 53.0681 13.6301 52.5484 16.0701C52.1838 17.7847 51.7096 18.7066 50.7618 20.8562C49.5693 23.5677 45.1538 23.5679 43.9607 20.8549C42.841 18.3152 41.8787 16.4478 41.8787 13.2508C41.8787 11.9849 42.4296 10.7869 43.4301 9.87734ZM52.6456 68.6921C51.9287 68.6921 51.3036 69.1801 51.1298 69.8755L50.2227 73.5035C50.0318 74.267 49.5553 74.8967 48.9238 75.291V64.7715H58.1284V68.6921H52.6456ZM47.3607 44.8887C48.4416 45.5667 48.8124 45.3975 54.6298 45.3975C54.6133 46.4838 54.6053 47.7127 54.6053 49.1184C54.6053 49.5178 54.7638 49.9147 55.047 50.2058C55.2058 50.3693 54.215 49.6584 70.4156 60.9987C73.7907 63.3613 72.1133 68.6924 67.9907 68.6924H61.2538V64.7718H63.2139C64.0767 64.7718 64.7764 64.0721 64.7764 63.2093C64.7764 62.3464 64.0767 61.6467 63.2139 61.6467H59.9101L47.791 58.1841C46.7947 57.8995 45.799 58.6475 45.799 59.6864V82.783H41.541C39.7293 69.3635 38.2504 62.2381 39.8978 50.6807H47.3618C48.2247 50.6807 48.9244 49.981 48.9244 49.1181C48.9244 48.255 48.2247 47.5555 47.3613 47.5555H40.1136C40.1098 46.7804 40.103 46.0644 40.0933 45.3973C45.9701 45.3973 46.2973 45.5567 47.3607 44.8887ZM37.067 95.5752L41.709 94.415C42.4813 94.2218 42.985 93.479 42.8784 92.6898L41.9627 85.9081H45.799V96.8741H35.2799C35.6738 96.2427 36.3036 95.7661 37.067 95.5752Z" fill="black"/>
</svg>
