<?xml version="1.0" encoding="utf-8"?>
<!-- Generator: Adobe Illustrator 24.3.0, SVG Export Plug-In . SVG Version: 6.00 Build 0)  -->
<svg version="1.1" id="Слой_1" xmlns="http://www.w3.org/2000/svg" xmlns:xlink="http://www.w3.org/1999/xlink" x="0px" y="0px"
	 viewBox="0 0 80 420" style="enable-background:new 0 0 80 420;" xml:space="preserve">
<g>
	<g>
		<path style="fill:#FFFFFF;" d="M8.6,420.1C29,403.2,34.9,387.9,36.5,377c2.7-19.4-7.9-26.4-4.2-47c4.2-23.3,19.6-24,21.1-43.1
			c1.7-23.7-21.7-27.7-21.4-52.9c0.3-22.9,19.8-34.5,12.8-54c-2.1-5.9-3.8-4.6-8-13c-9.5-18.9-7.3-38.5-6.2-48
			c3-24.8,12.5-31.5,6.9-45c-2.8-6.7-5-8.4-6.1-16c-1.7-13.1,5.2-19.1,4.9-28c-0.2-7.5-5.7-17.9-29.1-29.9"/>
	</g>
</g>
</svg>
