<?xml version="1.0" encoding="utf-8"?>
<!-- Generator: Adobe Illustrator 24.3.0, SVG Export Plug-In . SVG Version: 6.00 Build 0)  -->
<svg version="1.1" id="Слой_1" xmlns="http://www.w3.org/2000/svg" xmlns:xlink="http://www.w3.org/1999/xlink" x="0px" y="0px"
	 viewBox="0 0 420 80" style="enable-background:new 0 0 420 80;" xml:space="preserve">
<g>
	<g>
		<path style="fill:#FFFFFF;" d="M0,0c16.8,20.5,32.1,26.4,43,28c19.4,2.8,26.4-7.8,47-4c23.3,4.3,23.9,19.7,43,21.2
			c23.7,1.8,27.8-21.6,53-21.2c22.9,0.4,34.4,19.9,54,13c5.9-2.1,4.6-3.8,13-8c18.9-9.4,38.5-7.2,48-6c24.8,3.1,31.5,12.6,45,7
			c6.7-2.8,8.4-5,16-6c13.1-1.7,19.1,5.3,28,5c7.5-0.2,17.9-5.6,30-29"/>
	</g>
</g>
</svg>
